<?xml version="1.0" standalone="no"?>
<!DOCTYPE svg PUBLIC "-//W3C//DTD SVG 20010904//EN"
 "http://www.w3.org/TR/2001/REC-SVG-20010904/DTD/svg10.dtd">
<svg version="1.0" xmlns="http://www.w3.org/2000/svg"
 width="640.000000pt" height="640.000000pt" viewBox="0 0 640.000000 640.000000"
 preserveAspectRatio="xMidYMid meet">
<metadata>
Created by potrace 1.11, written by Peter Selinger 2001-2013
</metadata>
<g transform="translate(0.000000,640.000000) scale(0.100000,-0.100000)"
fill="#000000" stroke="none">
<path d="M0 3200 l0 -3200 3200 0 3200 0 0 3200 0 3200 -3200 0 -3200 0 0
-3200z m3730 1207 c0 -233 3 -836 7 -1340 l6 -917 -1547 0 c-1470 0 -1548 1
-1541 18 3 9 216 586 472 1282 322 876 473 1276 492 1300 15 19 47 45 71 57
l43 23 999 0 998 0 0 -423z m583 409 c18 -7 45 -27 60 -43 16 -17 302 -590
661 -1324 l634 -1294 -707 -3 -706 -3 -83 27 c-139 45 -242 125 -295 231 l-24
48 -6 1188 -5 1187 219 0 c164 0 228 -3 252 -14z"/>
</g>
</svg>
